<?xml version="1.0" encoding="UTF-8"?>
<svg version="1.1" xmlns="http://www.w3.org/2000/svg" width="512" height="512">
<path d="M0 0 C1.01790619 0.00215515 2.03581238 0.0043103 3.08456421 0.00653076 C17.69363523 0.05620146 32.02575853 0.30709809 46.375 3.3125 C47.34985352 3.51117676 48.32470703 3.70985352 49.32910156 3.91455078 C97.7109774 14.03517194 141.69928269 35.9516877 177.375 70.3125 C178.3640332 71.26068604 178.3640332 71.26068604 179.37304688 72.22802734 C188.86130305 81.37247479 197.6012044 90.66984009 205.375 101.3125 C206.23306152 102.46355017 207.09113451 103.61459177 207.94921875 104.765625 C213.98736829 112.95680614 219.34595521 121.47054105 224.375 130.3125 C224.73948242 130.94430176 225.10396484 131.57610352 225.47949219 132.22705078 C247.08534998 169.97532572 256.85198095 212.74189997 256.6875 255.9375 C256.68534485 256.95540619 256.6831897 257.97331238 256.68096924 259.02206421 C256.63129854 273.63113523 256.38040191 287.96325853 253.375 302.3125 C253.07698486 303.77478027 253.07698486 303.77478027 252.77294922 305.26660156 C242.65232806 353.6484774 220.7358123 397.63678269 186.375 433.3125 C185.74287598 433.97185547 185.11075195 434.63121094 184.45947266 435.31054688 C175.31502521 444.79880305 166.01765991 453.5387044 155.375 461.3125 C154.22394983 462.17056152 153.07290823 463.02863451 151.921875 463.88671875 C143.73224019 469.92427396 135.22961724 475.30707302 126.375 480.3125 C125.66778809 480.7146875 124.96057617 481.116875 124.23193359 481.53125 C101.09654164 494.5566741 75.92537591 503.30551461 49.9375 508.625 C49.21860596 508.77235596 48.49971191 508.91971191 47.7590332 509.0715332 C33.08339502 511.86090125 18.55831162 512.66142619 3.64770508 512.62817383 C0.70811513 512.6250221 -2.2304558 512.64854926 -5.16992188 512.67382812 C-18.54306192 512.71848737 -31.43916711 511.51301542 -44.625 509.3125 C-46.33055054 509.03031616 -46.33055054 509.03031616 -48.07055664 508.74243164 C-91.33802759 500.97044532 -132.38793216 480.98345309 -165.625 452.3125 C-166.37007813 451.67828125 -167.11515625 451.0440625 -167.8828125 450.390625 C-181.38779833 438.57948485 -194.05918743 425.82889772 -204.625 411.3125 C-205.48149066 410.16255169 -206.33826433 409.01281411 -207.1953125 407.86328125 C-213.23534209 399.67315742 -218.61867614 391.16870382 -223.625 382.3125 C-224.0271875 381.60528809 -224.429375 380.89807617 -224.84375 380.16943359 C-237.8691741 357.03404164 -246.61801461 331.86287591 -251.9375 305.875 C-252.08485596 305.15610596 -252.23221191 304.43721191 -252.3840332 303.6965332 C-255.35789088 288.05024391 -255.99800362 272.57681954 -255.9375 256.6875 C-255.93534485 255.66959381 -255.9331897 254.65168762 -255.93096924 253.60293579 C-255.88129854 238.99386477 -255.63040191 224.66174147 -252.625 210.3125 C-252.42632324 209.33764648 -252.22764648 208.36279297 -252.02294922 207.35839844 C-241.90232806 158.9765226 -219.9858123 114.98821731 -185.625 79.3125 C-184.99287598 78.65314453 -184.36075195 77.99378906 -183.70947266 77.31445312 C-174.56502521 67.82619695 -165.26765991 59.0862956 -154.625 51.3125 C-153.47394983 50.45443848 -152.32290823 49.59636549 -151.171875 48.73828125 C-142.98224019 42.70072604 -134.47961724 37.31792698 -125.625 32.3125 C-124.91778809 31.9103125 -124.21057617 31.508125 -123.48193359 31.09375 C-100.34654164 18.0683259 -75.17537591 9.31948539 -49.1875 4 C-48.46860596 3.85264404 -47.74971191 3.70528809 -47.0090332 3.5534668 C-31.36274391 0.57960912 -15.88931954 -0.06050362 0 0 Z " fill="#8C60F0" transform="translate(255.625,-0.3125)"/>
<path d="M0 0 C-3.73534828 4.58819772 -7.74540648 8.81691043 -11.94921875 12.9765625 C-12.49136017 13.51319519 -13.03350159 14.04982788 -13.59207153 14.60272217 C-15.86487793 16.84783413 -18.14123402 19.08926723 -20.42211914 21.32617188 C-22.10225981 22.97603329 -23.77605864 24.63212653 -25.44921875 26.2890625 C-25.96175705 26.78814117 -26.47429535 27.28721985 -27.00236511 27.80142212 C-30.57413947 31.34810292 -33.61413145 34.61178652 -34.43359375 39.68359375 C-34.43552734 41.04677734 -34.43552734 41.04677734 -34.4375 42.4375 C-34.45683594 43.34371094 -34.47617187 44.24992187 -34.49609375 45.18359375 C-33.34534464 51.71658671 -28.13623547 56.12466981 -23.5625 60.5625 C-23.00240234 61.11357422 -22.44230469 61.66464844 -21.86523438 62.23242188 C-20.81168476 63.26876065 -19.75606663 64.30300487 -18.69750977 65.33422852 C-16.44922243 67.5404797 -14.22648587 69.77174286 -12 72 C-10.84784455 73.14756937 -9.6953098 74.29475799 -8.54248047 75.44165039 C-5.06450601 78.90182312 -1.5895876 82.36504748 1.88427734 85.8293457 C3.38078431 87.32079801 4.87818387 88.81135523 6.37646484 90.30102539 C8.54761163 92.4600442 10.71551393 94.62227535 12.8828125 96.78515625 C13.55160431 97.44878677 14.22039612 98.1124173 14.90945435 98.79615784 C15.53375336 99.42038132 16.15805237 100.0446048 16.80126953 100.68774414 C17.34800323 101.23225723 17.89473694 101.77677032 18.45803833 102.33778381 C22.95603057 107.1865655 22.95603057 107.1865655 23.125 110.3125 C19.06152075 120.01970043 7.17408513 125.76666305 -1.9375 129.75 C-3.94775301 130.527914 -5.96868539 131.27887011 -8 132 C-8.89847656 132.32097656 -9.79695312 132.64195312 -10.72265625 132.97265625 C-25.09451768 137.31857778 -43.40784231 136.79607885 -57 130 C-61.42026537 129.4636443 -63.36691503 129.54549018 -67.03380013 132.17805195 C-68.08140192 133.19895787 -69.11010455 134.23947944 -70.12307739 135.29475403 C-70.98430311 136.14912498 -70.98430311 136.14912498 -71.86292732 137.02075595 C-73.78128773 138.93227334 -75.67353937 140.86769087 -77.56689453 142.80395508 C-78.93758689 144.17989658 -80.30983984 145.55428494 -81.68353271 146.92723083 C-85.40971982 150.65995628 -89.11405714 154.41371517 -92.81517267 158.17127824 C-96.69144027 162.09874658 -100.58833957 166.00562705 -104.48336792 169.91447449 C-111.86092662 177.3241286 -119.22131118 184.75058829 -126.57498729 192.18393773 C-139.74485575 205.49517864 -152.94571028 218.77567391 -166.14963615 232.05312079 C-170.78353832 236.71411794 -175.41062332 241.38175142 -180.03205514 246.05511248 C-182.90722678 248.9611288 -185.78634533 251.86321252 -188.66631317 254.76447487 C-190.00123201 256.1111278 -191.33438026 257.45953854 -192.66562271 258.8098259 C-194.48277597 260.65261196 -196.30604622 262.4891289 -198.13088989 264.32429504 C-198.65628361 264.86028928 -199.18167732 265.39628352 -199.72299206 265.94852 C-205.25272182 271.4820026 -209.98556557 274.07758877 -217.75 274.3125 C-224.45159943 274.23354154 -228.76990621 271.88319031 -233.8125 267.625 C-238.76874811 261.67750227 -239.37245381 256.9934569 -239.59375 249.4140625 C-238.34123404 242.21209573 -233.26309265 236.81735254 -228.16644287 231.84605408 C-227.59934609 231.28062741 -227.0322493 230.71520075 -226.44796777 230.13263994 C-224.56577927 228.25948382 -222.67310505 226.39730774 -220.78027344 224.53491211 C-219.42087871 223.18619733 -218.06219359 221.836767 -216.7041626 220.48667908 C-213.78851853 217.59062275 -210.86842138 214.69916018 -207.94487762 211.81107903 C-203.32238148 207.24361714 -198.71307899 202.66299496 -194.10601807 198.07997131 C-181.00699349 185.05329096 -167.89027825 172.04450863 -154.76074219 159.04858398 C-147.50189728 151.86337663 -140.25386837 144.66743333 -133.01728463 137.45980459 C-128.43936808 132.9015122 -123.84826384 128.35706941 -119.24694014 123.82241237 C-116.39008926 121.00074054 -113.54585231 118.16661591 -110.70503998 115.32880592 C-109.38520343 114.01541339 -108.06019948 112.70719025 -106.72972107 111.40457916 C-104.91420036 109.62563029 -103.11811276 107.82907192 -101.32562256 106.02696228 C-100.52968142 105.26030625 -100.52968142 105.26030625 -99.71766067 104.47816223 C-96.15358145 100.83905711 -95.18489092 98.05739347 -95 93 C-95.67068264 90.10748326 -95.67068264 90.10748326 -96.875 87.4375 C-102.4870078 73.91766303 -102.09987519 54.86423832 -97.3203125 41.09375 C-88.78590082 21.09595695 -75.28393561 6.2686107 -55 -2 C-37.02361113 -9.11056173 -17.64517671 -7.265661 0 0 Z " fill="#FEFDFD" transform="translate(358,122)"/>
<path d="M0 0 C0.99 0.33 1.98 0.66 3 1 C4.1328125 3.328125 4.1328125 3.328125 5.125 6.25 C5.45757812 7.20390625 5.79015625 8.1578125 6.1328125 9.140625 C11.74945768 27.66037397 8.04564139 47.84132554 -0.53515625 64.70703125 C-2 67 -2 67 -5 69 C-15.23 58.77 -25.46 48.54 -36 38 C-34.2961661 34.59233219 -33.24087336 32.99464467 -30.65185547 30.42480469 C-29.97130096 29.74440125 -29.29074646 29.0639978 -28.58956909 28.36297607 C-27.85618317 27.63991272 -27.12279724 26.91684937 -26.3671875 26.171875 C-25.61535187 25.42286926 -24.86351624 24.67386353 -24.08889771 23.90216064 C-21.68892099 21.5133698 -19.28207991 19.13163103 -16.875 16.75 C-15.24563648 15.13066831 -13.61672466 13.51088198 -11.98828125 11.890625 C-7.99741194 7.92179495 -4.00088585 3.95873101 0 0 Z " fill="#FDFBFD" transform="translate(385,152)"/>
<path d="M0 0 C1.81396484 1.24169922 1.81396484 1.24169922 3.5859375 2.8671875 C4.27429688 3.49778076 4.96265625 4.12837402 5.671875 4.77807617 C9.79119542 8.70948715 13.86705049 12.68107787 17.89306641 16.70776367 C19.38818136 18.20066182 20.89116956 19.68533392 22.39453125 21.16992188 C23.35465427 22.12711532 24.31430722 23.08478056 25.2734375 24.04296875 C26.13372559 24.89914795 26.99401367 25.75532715 27.88037109 26.63745117 C30.34546939 29.38506189 31.91748133 31.46240204 32.1171875 35.18359375 C31.57453946 40.23372146 30.84589554 43.37386992 27 47 C22.66992914 49.53114789 18.90138025 49.92329343 14 49 C12.20581055 47.82910156 12.20581055 47.82910156 10.44921875 46.203125 C9.41692139 45.25095093 9.41692139 45.25095093 8.36376953 44.27954102 C4.07619553 40.14474672 -0.17212095 35.97551688 -4.37524414 31.75512695 C-5.95539644 30.16954204 -7.54091976 28.58946558 -9.12695312 27.00976562 C-10.13573806 26.00032108 -11.14421338 24.99056701 -12.15234375 23.98046875 C-13.05976318 23.07192139 -13.96718262 22.16337402 -14.90209961 21.22729492 C-18.43521229 17.47626653 -18.39493034 14.54863265 -18.3515625 9.546875 C-17.77615781 5.37838771 -16.08634537 3.80576852 -13 1 C-8.53702264 -1.6979064 -4.91238369 -1.39679175 0 0 Z " fill="#A353F3" transform="translate(299,185)"/>
<path d="M0 0 C5.33739473 1.98844117 8.45333824 4.90667648 11 10 C11.40331428 15.24308569 10.86051133 18.56127553 8 23 C4.52298491 26.78381054 1.26768665 27.81060746 -3.71875 28.16796875 C-8.4564677 27.81912995 -11.70505312 25.42444156 -14.875 21.9375 C-17.19800012 17.93677757 -17.38557339 14.54976602 -17 10 C-13.30090764 2.74408806 -8.25966171 -1.03245771 0 0 Z " fill="#648FEB" transform="translate(144,360)"/>
<path d="M0 0 C1.72412109 1.25830078 1.72412109 1.25830078 3.5859375 2.9453125 C4.28710693 3.58033691 4.98827637 4.21536133 5.71069336 4.86962891 C6.46616455 5.57265137 7.22163574 6.27567383 8 7 C8.79607666 7.74040527 9.59215332 8.48081055 10.41235352 9.24365234 C12.94737568 11.63625195 15.44493449 14.06325256 17.9375 16.5 C18.79923828 17.31597656 19.66097656 18.13195312 20.54882812 18.97265625 C27.43780262 25.73677147 27.43780262 25.73677147 28.12890625 29.97265625 C28 33 28 33 27 34.9375 C23.83784504 36.61739482 21.5363228 36.38119756 18 36 C15.55582133 34.24292848 13.72493226 32.68682898 11.6640625 30.55859375 C11.09924164 29.9980983 10.53442078 29.43760284 9.95248413 28.86012268 C8.76592693 27.67394587 7.58803776 26.47904214 6.41845703 25.27612305 C4.63195518 23.44463034 2.8134167 21.6503259 0.98828125 19.85742188 C-0.1635416 18.6973773 -1.31335196 17.53533029 -2.4609375 16.37109375 C-3.0025351 15.83850449 -3.54413269 15.30591522 -4.10214233 14.75718689 C-7.69598665 11.00352166 -8.85938975 8.18490486 -9 3 C-6.92801957 -0.77831726 -3.96978959 -0.7490169 0 0 Z " fill="#FCF9FD" transform="translate(296,191)"/>
<path d="M0 0 C3.5625 0.5 3.5625 0.5 6 2.125 C8.04741197 5.2370662 8.24801032 6.84394496 7.5625 10.5 C5.14154909 13.12846098 3.51635308 14.31388233 0 15 C-3.32662957 14.31761445 -4.47828918 13.25740782 -6.4375 10.5 C-6.92496608 7.15737548 -6.75315201 5.20557508 -5.375 2.125 C-3.4375 0.5 -3.4375 0.5 0 0 Z " fill="#FBFCFD" transform="translate(140.4375,366.5)"/>
<path d="M0 0 C1.65 0.33 3.3 0.66 5 1 C5.625 2.875 5.625 2.875 6 5 C5.34 5.66 4.68 6.32 4 7 C1.875 6.625 1.875 6.625 0 6 C-1.125 2.25 -1.125 2.25 0 0 Z " fill="#8B7CF0" transform="translate(219,290)"/>
<path d="M0 0 C2.125 0.375 2.125 0.375 4 1 C4.5625 2.9375 4.5625 2.9375 5 5 C4 6 4 6 1.4375 6.0625 C0.2309375 6.0315625 0.2309375 6.0315625 -1 6 C-1.625 4.125 -1.625 4.125 -2 2 C-1.34 1.34 -0.68 0.68 0 0 Z " fill="#7A83EE" transform="translate(185,325)"/>
<path d="M0 0 C1.67542976 0.28604898 3.34385343 0.61781233 5 1 C4.67 2.65 4.34 4.3 4 6 C2.35 5.67 0.7 5.34 -1 5 C-1 1 -1 1 0 0 Z " fill="#8E72F0" transform="translate(237,273)"/>
<path d="M0 0 C1.65 0.33 3.3 0.66 5 1 C4.67 2.65 4.34 4.3 4 6 C2.35 5.67 0.7 5.34 -1 5 C-0.67 3.35 -0.34 1.7 0 0 Z " fill="#7D7AEE" transform="translate(202,308)"/>
</svg>
